<svg width="200" height="200" viewBox="0 0 559 509" fill="none" xmlns="http://www.w3.org/2000/svg">
<path d="M488.282 344.891V162.085C488.271 154.083 486.167 146.224 482.178 139.284C478.19 132.343 472.455 126.564 465.542 122.517L306.269 31.1141C299.362 27.1094 291.516 25 283.529 25C275.542 25 267.697 27.1094 260.79 31.1141L101.516 122.517C94.5869 126.546 88.8391 132.321 84.8483 139.265C80.8575 146.209 78.7636 154.079 78.7764 162.085V344.939C78.792 352.937 80.898 360.791 84.8862 367.727C88.8745 374.662 94.6067 380.438 101.516 384.483L260.79 475.886C267.697 479.891 275.542 482 283.529 482C291.516 482 299.362 479.891 306.269 475.886L465.542 384.483C472.475 380.452 478.225 374.673 482.216 367.724C486.207 360.776 488.299 352.901 488.282 344.891Z" fill="url(#paint0_linear_21_395)" stroke="black" stroke-width="50" stroke-linecap="round" stroke-linejoin="round"/>
<path d="M296.5 188L158 121.306L306 127.5L290.207 50L431 121.306" fill="black"/>
<path d="M296.5 188L158 121.306L306 127.5L290.207 50L431 121.306" stroke="#25A3D0" stroke-width="30" stroke-linecap="round" stroke-linejoin="round"/>
<path d="M456.971 351.036L457.989 199.905L398.877 392.407L319.867 271.518L318.723 441.447" fill="black"/>
<path d="M456.971 351.036L457.989 199.905L398.877 392.407L319.867 271.518L318.723 441.447" stroke="#25A3D0" stroke-opacity="0.75" stroke-width="30" stroke-linecap="round" stroke-linejoin="round"/>
<path d="M247.655 267.351L127.501 202.059L194.376 321.543L119.236 369.341L236.94 436.592" fill="black"/>
<path d="M247.655 267.351L127.501 202.059L194.376 321.543L119.236 369.341L236.94 436.592" stroke="#25A3D0" stroke-opacity="0.5" stroke-width="30" stroke-linecap="round" stroke-linejoin="round"/>
<defs>
<linearGradient id="paint0_linear_21_395" x1="283.529" y1="25" x2="283.529" y2="482" gradientUnits="userSpaceOnUse">
<stop/>
<stop offset="1"/>
</linearGradient>
</defs>
</svg>
